<mxfile host="app.diagrams.net" agent="Mozilla/5.0 (Windows NT 10.0; Win64; x64) AppleWebKit/537.36 (KHTML, like Gecko) Chrome/140.0.0.0 Safari/537.36" version="28.2.3">
  <diagram name="Página-1" id="QWFaPO_XLyivBuJkBawN">
    <mxGraphModel dx="2722" dy="1022" grid="1" gridSize="10" guides="1" tooltips="1" connect="1" arrows="1" fold="1" page="1" pageScale="1" pageWidth="827" pageHeight="1169" math="0" shadow="0">
      <root>
        <mxCell id="0" />
        <mxCell id="1" parent="0" />
        <mxCell id="IPzw1Am2CrLmI68roNeZ-4" style="edgeStyle=orthogonalEdgeStyle;rounded=0;orthogonalLoop=1;jettySize=auto;html=1;entryX=0;entryY=0.5;entryDx=0;entryDy=0;endArrow=classic;endFill=1;" edge="1" parent="1" source="IPzw1Am2CrLmI68roNeZ-1" target="IPzw1Am2CrLmI68roNeZ-3">
          <mxGeometry relative="1" as="geometry" />
        </mxCell>
        <mxCell id="IPzw1Am2CrLmI68roNeZ-1" value="&lt;font style=&quot;vertical-align: inherit;&quot; dir=&quot;auto&quot;&gt;&lt;font style=&quot;vertical-align: inherit;&quot; dir=&quot;auto&quot;&gt;Diretor&lt;/font&gt;&lt;/font&gt;" style="rounded=0;whiteSpace=wrap;html=1;" vertex="1" parent="1">
          <mxGeometry x="-90" y="160" width="120" height="60" as="geometry" />
        </mxCell>
        <mxCell id="IPzw1Am2CrLmI68roNeZ-5" style="edgeStyle=orthogonalEdgeStyle;rounded=0;orthogonalLoop=1;jettySize=auto;html=1;exitX=0;exitY=0.5;exitDx=0;exitDy=0;entryX=1;entryY=0.5;entryDx=0;entryDy=0;" edge="1" parent="1" source="IPzw1Am2CrLmI68roNeZ-2" target="IPzw1Am2CrLmI68roNeZ-3">
          <mxGeometry relative="1" as="geometry" />
        </mxCell>
        <mxCell id="IPzw1Am2CrLmI68roNeZ-2" value="Departamento" style="rounded=0;whiteSpace=wrap;html=1;" vertex="1" parent="1">
          <mxGeometry x="570" y="160" width="120" height="60" as="geometry" />
        </mxCell>
        <mxCell id="IPzw1Am2CrLmI68roNeZ-3" value="Gere" style="rhombus;whiteSpace=wrap;html=1;" vertex="1" parent="1">
          <mxGeometry x="320" y="150" width="80" height="80" as="geometry" />
        </mxCell>
        <mxCell id="IPzw1Am2CrLmI68roNeZ-7" value="1" style="text;html=1;align=center;verticalAlign=middle;resizable=0;points=[];autosize=1;strokeColor=none;fillColor=none;" vertex="1" parent="1">
          <mxGeometry x="530" y="160" width="30" height="30" as="geometry" />
        </mxCell>
        <mxCell id="IPzw1Am2CrLmI68roNeZ-8" value="1" style="text;html=1;align=center;verticalAlign=middle;resizable=0;points=[];autosize=1;strokeColor=none;fillColor=none;" vertex="1" parent="1">
          <mxGeometry x="30" y="160" width="30" height="30" as="geometry" />
        </mxCell>
        <mxCell id="IPzw1Am2CrLmI68roNeZ-9" value="Atributos" style="swimlane;whiteSpace=wrap;html=1;" vertex="1" parent="1">
          <mxGeometry x="-250" y="300" width="106" height="180" as="geometry" />
        </mxCell>
        <mxCell id="IPzw1Am2CrLmI68roNeZ-10" value="ID DIRETOR" style="text;html=1;align=center;verticalAlign=middle;resizable=0;points=[];autosize=1;strokeColor=none;fillColor=none;" vertex="1" parent="IPzw1Am2CrLmI68roNeZ-9">
          <mxGeometry y="20" width="90" height="30" as="geometry" />
        </mxCell>
        <mxCell id="IPzw1Am2CrLmI68roNeZ-11" value="NOME&lt;div&gt;&lt;br&gt;&lt;/div&gt;" style="text;html=1;align=center;verticalAlign=middle;resizable=0;points=[];autosize=1;strokeColor=none;fillColor=none;" vertex="1" parent="IPzw1Am2CrLmI68roNeZ-9">
          <mxGeometry y="50" width="60" height="40" as="geometry" />
        </mxCell>
        <mxCell id="IPzw1Am2CrLmI68roNeZ-12" value="IDADE" style="text;html=1;align=center;verticalAlign=middle;resizable=0;points=[];autosize=1;strokeColor=none;fillColor=none;" vertex="1" parent="IPzw1Am2CrLmI68roNeZ-9">
          <mxGeometry y="85" width="60" height="30" as="geometry" />
        </mxCell>
        <mxCell id="IPzw1Am2CrLmI68roNeZ-13" value="SALÁRIO" style="text;html=1;align=center;verticalAlign=middle;resizable=0;points=[];autosize=1;strokeColor=none;fillColor=none;" vertex="1" parent="IPzw1Am2CrLmI68roNeZ-9">
          <mxGeometry y="115" width="80" height="30" as="geometry" />
        </mxCell>
        <mxCell id="IPzw1Am2CrLmI68roNeZ-14" value="Departamento" style="swimlane;whiteSpace=wrap;html=1;" vertex="1" parent="1">
          <mxGeometry x="780" y="330" width="156" height="200" as="geometry" />
        </mxCell>
        <mxCell id="IPzw1Am2CrLmI68roNeZ-15" value="ID DEPARTAMENTO&lt;div&gt;&lt;br&gt;&lt;/div&gt;" style="text;html=1;align=center;verticalAlign=middle;resizable=0;points=[];autosize=1;strokeColor=none;fillColor=none;" vertex="1" parent="IPzw1Am2CrLmI68roNeZ-14">
          <mxGeometry y="25" width="140" height="40" as="geometry" />
        </mxCell>
        <mxCell id="IPzw1Am2CrLmI68roNeZ-17" value="NOME" style="text;html=1;align=center;verticalAlign=middle;resizable=0;points=[];autosize=1;strokeColor=none;fillColor=none;" vertex="1" parent="IPzw1Am2CrLmI68roNeZ-14">
          <mxGeometry y="80" width="60" height="30" as="geometry" />
        </mxCell>
        <mxCell id="IPzw1Am2CrLmI68roNeZ-18" value="EQUIPAMENTOS" style="text;html=1;align=center;verticalAlign=middle;resizable=0;points=[];autosize=1;strokeColor=none;fillColor=none;" vertex="1" parent="IPzw1Am2CrLmI68roNeZ-14">
          <mxGeometry y="110" width="120" height="30" as="geometry" />
        </mxCell>
        <mxCell id="IPzw1Am2CrLmI68roNeZ-19" value="LOCALIZAÇÃO" style="text;html=1;align=center;verticalAlign=middle;resizable=0;points=[];autosize=1;strokeColor=none;fillColor=none;" vertex="1" parent="IPzw1Am2CrLmI68roNeZ-14">
          <mxGeometry y="140" width="110" height="30" as="geometry" />
        </mxCell>
        <mxCell id="IPzw1Am2CrLmI68roNeZ-20" value="ID DIRETOR" style="text;html=1;align=center;verticalAlign=middle;resizable=0;points=[];autosize=1;strokeColor=none;fillColor=none;" vertex="1" parent="IPzw1Am2CrLmI68roNeZ-14">
          <mxGeometry y="170" width="90" height="30" as="geometry" />
        </mxCell>
        <mxCell id="IPzw1Am2CrLmI68roNeZ-16" value="N DE EMPREGADOS" style="text;html=1;align=center;verticalAlign=middle;resizable=0;points=[];autosize=1;strokeColor=none;fillColor=none;" vertex="1" parent="IPzw1Am2CrLmI68roNeZ-14">
          <mxGeometry y="50" width="140" height="30" as="geometry" />
        </mxCell>
        <mxCell id="IPzw1Am2CrLmI68roNeZ-25" value="" style="endArrow=none;html=1;rounded=0;edgeStyle=orthogonalEdgeStyle;startArrow=oval;startFill=1;entryX=0.188;entryY=1.03;entryDx=0;entryDy=0;entryPerimeter=0;" edge="1" parent="1" target="IPzw1Am2CrLmI68roNeZ-1">
          <mxGeometry width="50" height="50" relative="1" as="geometry">
            <mxPoint x="-140" y="330" as="sourcePoint" />
            <mxPoint x="160.5" y="239" as="targetPoint" />
            <Array as="points">
              <mxPoint x="-140" y="330" />
              <mxPoint x="-67" y="330" />
            </Array>
          </mxGeometry>
        </mxCell>
        <mxCell id="IPzw1Am2CrLmI68roNeZ-32" value="" style="endArrow=none;html=1;rounded=0;edgeStyle=orthogonalEdgeStyle;startArrow=none;startFill=0;" edge="1" parent="1">
          <mxGeometry width="50" height="50" relative="1" as="geometry">
            <mxPoint x="-144" y="360" as="sourcePoint" />
            <mxPoint x="-4" y="220" as="targetPoint" />
            <Array as="points">
              <mxPoint x="-34" y="360" />
              <mxPoint x="-34" y="220" />
            </Array>
          </mxGeometry>
        </mxCell>
        <mxCell id="IPzw1Am2CrLmI68roNeZ-36" value="" style="endArrow=none;html=1;rounded=0;edgeStyle=elbowEdgeStyle;elbow=vertical;startArrow=oval;startFill=1;" edge="1" parent="1">
          <mxGeometry width="50" height="50" relative="1" as="geometry">
            <mxPoint x="770" y="363" as="sourcePoint" />
            <mxPoint x="681" y="220" as="targetPoint" />
            <Array as="points">
              <mxPoint x="847.8" y="363.2" />
              <mxPoint x="677.8" y="353.2" />
            </Array>
          </mxGeometry>
        </mxCell>
        <mxCell id="IPzw1Am2CrLmI68roNeZ-37" value="" style="endArrow=none;html=1;rounded=0;edgeStyle=elbowEdgeStyle;elbow=vertical;startArrow=oval;startFill=0;exitX=-0.02;exitY=0.62;exitDx=0;exitDy=0;exitPerimeter=0;" edge="1" parent="1">
          <mxGeometry width="50" height="50" relative="1" as="geometry">
            <mxPoint x="768.1999999999998" y="518.5999999999999" as="sourcePoint" />
            <mxPoint x="580" y="220" as="targetPoint" />
            <Array as="points">
              <mxPoint x="650.01" y="520" />
            </Array>
          </mxGeometry>
        </mxCell>
        <mxCell id="IPzw1Am2CrLmI68roNeZ-39" value="" style="endArrow=none;html=1;rounded=0;edgeStyle=elbowEdgeStyle;elbow=vertical;startArrow=none;startFill=0;exitX=-0.015;exitY=0.46;exitDx=0;exitDy=0;exitPerimeter=0;entryX=0.435;entryY=1.017;entryDx=0;entryDy=0;entryPerimeter=0;" edge="1" parent="1" target="IPzw1Am2CrLmI68roNeZ-2">
          <mxGeometry width="50" height="50" relative="1" as="geometry">
            <mxPoint x="779.9999999999998" y="453.79999999999995" as="sourcePoint" />
            <mxPoint x="614" y="230" as="targetPoint" />
            <Array as="points">
              <mxPoint x="634.1999999999999" y="454.82" />
            </Array>
          </mxGeometry>
        </mxCell>
        <mxCell id="IPzw1Am2CrLmI68roNeZ-40" value="" style="endArrow=none;html=1;rounded=0;edgeStyle=elbowEdgeStyle;elbow=vertical;startArrow=none;startFill=0;entryX=0.435;entryY=1.017;entryDx=0;entryDy=0;entryPerimeter=0;exitX=0.023;exitY=0.607;exitDx=0;exitDy=0;exitPerimeter=0;" edge="1" parent="1" source="IPzw1Am2CrLmI68roNeZ-17">
          <mxGeometry width="50" height="50" relative="1" as="geometry">
            <mxPoint x="760" y="429" as="sourcePoint" />
            <mxPoint x="639.9999999999998" y="219.99999999999997" as="targetPoint" />
            <Array as="points">
              <mxPoint x="647.1999999999999" y="428.98" />
            </Array>
          </mxGeometry>
        </mxCell>
        <mxCell id="IPzw1Am2CrLmI68roNeZ-41" value="" style="endArrow=none;html=1;rounded=0;edgeStyle=elbowEdgeStyle;elbow=vertical;startArrow=none;startFill=0;entryX=0.332;entryY=1.017;entryDx=0;entryDy=0;entryPerimeter=0;exitX=-0.001;exitY=0.673;exitDx=0;exitDy=0;exitPerimeter=0;" edge="1" parent="1" source="IPzw1Am2CrLmI68roNeZ-16">
          <mxGeometry width="50" height="50" relative="1" as="geometry">
            <mxPoint x="691" y="400" as="sourcePoint" />
            <mxPoint x="660.8400000000001" y="221.01999999999998" as="targetPoint" />
            <Array as="points">
              <mxPoint x="511" y="400" />
            </Array>
          </mxGeometry>
        </mxCell>
        <mxCell id="IPzw1Am2CrLmI68roNeZ-42" value="" style="endArrow=none;html=1;rounded=0;edgeStyle=elbowEdgeStyle;elbow=vertical;startArrow=none;startFill=0;exitX=0.02;exitY=0.26;exitDx=0;exitDy=0;exitPerimeter=0;" edge="1" parent="1" source="IPzw1Am2CrLmI68roNeZ-19">
          <mxGeometry width="50" height="50" relative="1" as="geometry">
            <mxPoint x="770" y="480" as="sourcePoint" />
            <mxPoint x="600" y="220" as="targetPoint" />
            <Array as="points">
              <mxPoint x="613.0400000000001" y="479.84000000000003" />
            </Array>
          </mxGeometry>
        </mxCell>
        <mxCell id="IPzw1Am2CrLmI68roNeZ-43" value="" style="endArrow=none;html=1;rounded=0;edgeStyle=orthogonalEdgeStyle;startArrow=none;startFill=0;entryX=0.75;entryY=1;entryDx=0;entryDy=0;" edge="1" parent="1" target="IPzw1Am2CrLmI68roNeZ-1">
          <mxGeometry width="50" height="50" relative="1" as="geometry">
            <mxPoint x="-144" y="390" as="sourcePoint" />
            <mxPoint y="210" as="targetPoint" />
            <Array as="points">
              <mxPoint x="-4" y="390" />
              <mxPoint x="-4" y="220" />
            </Array>
          </mxGeometry>
        </mxCell>
        <mxCell id="IPzw1Am2CrLmI68roNeZ-44" value="" style="endArrow=none;html=1;rounded=0;edgeStyle=orthogonalEdgeStyle;startArrow=none;startFill=0;" edge="1" parent="1">
          <mxGeometry width="50" height="50" relative="1" as="geometry">
            <mxPoint x="-140" y="430" as="sourcePoint" />
            <mxPoint x="20" y="220" as="targetPoint" />
            <Array as="points">
              <mxPoint x="20" y="430" />
            </Array>
          </mxGeometry>
        </mxCell>
      </root>
    </mxGraphModel>
  </diagram>
</mxfile>
